HIERARCHY
ROOT Hips
{
  OFFSET 66.7907 91.406 14.9666
  CHANNELS 6 Xposition Yposition Zposition Zrotation Xrotation Yrotation
  JOINT spine
  {
    OFFSET 0 6.84637 0.3937
    CHANNELS 3 Zrotation Xrotation Yrotation
    JOINT spine1
    {
      OFFSET 0 9.49621 0
      CHANNELS 3 Zrotation Xrotation Yrotation
      JOINT spine2
      {
        OFFSET 0 9.09909 0
        CHANNELS 3 Zrotation Xrotation Yrotation
        JOINT Neck
        {
          OFFSET 0 23.3612 1.11378
          CHANNELS 3 Zrotation Xrotation Yrotation
          JOINT Head
          {
            OFFSET 0 7.05802 0
            CHANNELS 3 Zrotation Xrotation Yrotation
            End Site
            {
              OFFSET 0 17.0844 -5.63419
            }
          }
        }
        JOINT RightShoulder
        {
          OFFSET -3.83136 9.82631 -0.533491
          CHANNELS 3 Zrotation Xrotation Yrotation
          JOINT RightArm
          {
            OFFSET 0 12.8881 0
            CHANNELS 3 Zrotation Xrotation Yrotation
            JOINT RightArmRoll
            {
              OFFSET 0 6.50617 0
              CHANNELS 3 Zrotation Xrotation Yrotation
              JOINT RightForeArm
              {
                OFFSET 0 18.9501 0
                CHANNELS 3 Zrotation Xrotation Yrotation
                JOINT RightForeArmRoll
                {
                  OFFSET 0 7.30092 0
                  CHANNELS 3 Zrotation Xrotation Yrotation
                  JOINT RightHand
                  {
                    OFFSET 0 14.6514 0
                    CHANNELS 3 Zrotation Xrotation Yrotation
                    End Site
                    {
                      OFFSET 0 0 0
                    }
                  }
                }
              }
            }
          }
        }
        JOINT LeftShoulder
        {
          OFFSET 3.83136 9.82631 -0.533491
          CHANNELS 3 Zrotation Xrotation Yrotation
          JOINT LeftArm
          {
            OFFSET 0 12.8881 0
            CHANNELS 3 Zrotation Xrotation Yrotation
            JOINT LeftArmRoll
            {
              OFFSET 0 6.50617 0
              CHANNELS 3 Zrotation Xrotation Yrotation
              JOINT LeftForeArm
              {
                OFFSET 0 18.9501 0
                CHANNELS 3 Zrotation Xrotation Yrotation
                JOINT LeftForeArmRoll
                {
                  OFFSET 0 7.30092 0
                  CHANNELS 3 Zrotation Xrotation Yrotation
                  JOINT LeftHand
                  {
                    OFFSET 0 14.6514 0
                    CHANNELS 3 Zrotation Xrotation Yrotation
                    End Site
                    {
                      OFFSET 0 0 0
                    }
                  }
                }
              }
            }
          }
        }
      }
    }
  }
  JOINT RightUpLeg
  {
    OFFSET -6.06837 -1.11278 -0.933477
    CHANNELS 3 Zrotation Xrotation Yrotation
    JOINT RightUpLegRoll
    {
      OFFSET 0 17.1796 0
      CHANNELS 3 Zrotation Xrotation Yrotation
      JOINT RightLeg
      {
        OFFSET 0 -21.2743 0
        CHANNELS 3 Zrotation Xrotation Yrotation
        JOINT RightLegRoll
        {
          OFFSET 0 21.3439 0
          CHANNELS 3 Zrotation Xrotation Yrotation
          JOINT RightFoot
          {
            OFFSET 0 17.7652 0
            CHANNELS 3 Zrotation Xrotation Yrotation
            JOINT RightToeBase
            {
              OFFSET 0 14.8508 0
              CHANNELS 3 Zrotation Xrotation Yrotation
              End Site
              {
                OFFSET 0.0062947 7.19213 -0.829005
              }
            }
          }
        }
      }
    }
  }
  JOINT LeftUpLeg
  {
    OFFSET 6.06837 -1.11278 -0.933477
    CHANNELS 3 Zrotation Xrotation Yrotation
    JOINT LeftUpLegRoll
    {
      OFFSET 0 17.1797 0
      CHANNELS 3 Zrotation Xrotation Yrotation
      JOINT LeftLeg
      {
        OFFSET 0 21.2742 0
        CHANNELS 3 Zrotation Xrotation Yrotation
        JOINT LeftLegRoll
        {
          OFFSET 0 21.5412 0
          CHANNELS 3 Zrotation Xrotation Yrotation
          JOINT LeftFoot
          {
            OFFSET 0 17.5679 0
            CHANNELS 3 Zrotation Xrotation Yrotation
            JOINT LeftToeBase
            {
              OFFSET 0 14.8508 0
              CHANNELS 3 Zrotation Xrotation Yrotation
              End Site
              {
                OFFSET -0.0282102 7.19214 -0.829005
              }
            }
          }
        }
      }
    }
  }
}
MOTION
Frames: 11
Frame Time: 0.00208333
54.7037 91.2892 7.48964 0.393814 2.07376 -3.56251 0.159085 -2.01376 -0.0184006 0.31734 -0.0247909 -0.0518547 0.318067 1.62027 -0.0571812 -4.42702 22.2397 1.09866 2.88552 -9.82626 -0.064594 70.3674 5.07093 1.13537 104.899 7.13713 10.7229 3.40423e-007 -5.22958e-007 -3.7748e-006 11.281 16.6647 -2.78496 -9.60601e-006 -5.176e-006 -3 8.02889 -4.95145 0.69769 -69.5145 2.38764 0.0466682 -106.42 10.8903 -20.8646 -6.29388e-007 -7.90131e-008 4.63395e-006 -11.3322 2.74552 0.580458 4.42347e-006 -4.38536e-006 3 -8.02889 -4.95148 -0.697711 175.466 7.34514 0.211281 -180 7.0156e-015 178.979 179.265 7.29907 179.785 4.22802e-006 -2.08559e-006 0.0345045 -18.1424 67.1785 18.8792 8.13482 25.2327 -3.48702 -175.384 3.51884 0.482794 4.54188e-006 -4.6773e-006 -1.0525 -1.11696 -6.97122 0.17127 -1.11663e-006 2.19439e-006 -0.0372565 18.1317 67.265 -18.926 -8.13126 25.2329 3.4855 
54.6746 91.2872 7.4842 0.353769 2.08457 -3.57434 0.167999 -2.00351 -0.018246 0.33516 -0.00430275 -0.0523619 0.335901 1.64075 -0.0579871 -4.45921 22.092 1.1029 2.9202 -9.74032 -0.0630047 70.3028 5.02727 1.1245 104.99 7.13463 10.7259 3.40423e-007 -5.22958e-007 -3.7748e-006 11.2604 16.6817 -2.78577 -9.60601e-006 -5.176e-006 -3 8.02889 -4.95145 0.69769 -69.4655 2.31699 0.0753665 -106.505 10.8527 -20.8857 -6.29388e-007 -7.90131e-008 4.63395e-006 -11.3013 2.79151 0.586449 4.42347e-006 -4.38536e-006 3 -8.02889 -4.95148 -0.697711 175.526 7.33673 0.16753 -180 7.0156e-015 178.979 179.282 7.25465 179.785 4.22802e-006 -2.08559e-006 0.0307764 -18.1096 67.1342 18.8434 8.13482 25.2327 -3.48702 -175.338 3.62009 0.465864 4.54188e-006 -4.6773e-006 -1.05261 -1.09662 -7.15631 0.177962 -1.11663e-006 2.19439e-006 -0.0429363 18.1728 67.3202 -18.9699 -8.13126 25.2329 3.4855 
54.675 91.3302 7.47669 0.312206 2.09366 -3.58637 0.177268 -1.99285 -0.0180924 0.353688 0.0170087 -0.0528693 0.354444 1.66206 -0.0588051 -4.49392 21.9427 1.10778 2.95704 -9.65351 -0.0612935 70.2352 4.9825 1.11357 105.084 7.13185 10.7274 3.40423e-007 -5.22958e-007 -3.7748e-006 11.2403 16.6991 -2.78669 -9.60601e-006 -5.176e-006 -3 8.02889 -4.95145 0.69769 -69.4167 2.24512 0.104676 -106.591 10.8153 -20.9064 -6.29388e-007 -7.90131e-008 4.63395e-006 -11.2706 2.8371 0.592391 4.42347e-006 -4.38536e-006 3 -8.02889 -4.95148 -0.697711 175.587 7.32295 0.122535 -180 7.0156e-015 178.979 179.298 7.20416 179.785 4.22802e-006 -2.08559e-006 0.0268412 -18.0757 67.0881 18.8062 8.13482 25.2327 -3.48702 -175.29 3.72126 0.447852 4.54188e-006 -4.6773e-006 -1.05277 -1.07554 -7.34679 0.184853 -1.11663e-006 2.19439e-006 -0.0488536 18.216 67.3779 -19.016 -8.13126 25.2329 3.4855 
54.7062 91.3188 7.48118 0.269579 2.10153 -3.59854 0.186784 -1.9819 -0.0179395 0.372713 0.0388965 -0.0533768 0.373485 1.68395 -0.0596316 -4.53039 21.7923 1.11311 2.99539 -9.56608 -0.0594974 70.1655 4.93694 1.1026 105.18 7.12889 10.7277 3.40423e-007 -5.22958e-007 -3.7748e-006 11.2205 16.7168 -2.78769 -9.60601e-006 -5.176e-006 -3 8.02889 -4.95145 0.69769 -69.368 2.1724 0.134413 -106.678 10.7781 -20.9269 -6.29388e-007 -7.90131e-008 4.63395e-006 -11.2401 2.88242 0.598298 4.42347e-006 -4.38536e-006 3 -8.02889 -4.95148 -0.697711 175.65 7.3054 0.0766708 -180 7.0156e-015 178.979 179.315 7.14941 179.785 4.22802e-006 -2.08559e-006 0.022761 -18.0409 67.0407 18.7682 8.13482 25.2327 -3.48702 -175.24 3.82237 0.429081 4.54188e-006 -4.6773e-006 -1.05297 -1.05393 -7.54105 0.191887 -1.11663e-006 2.1944e-006 -0.0549372 18.2608 67.4374 -19.0639 -8.13126 25.2329 3.4855 
54.6947 91.3211 7.47338 0.226347 2.10871 -3.61079 0.196442 -1.97079 -0.017787 0.392021 0.0611137 -0.0538844 0.392809 1.70617 -0.0604629 -4.56784 21.6413 1.11869 3.0346 -9.4783 -0.0576533 70.0945 4.89094 1.09161 105.278 7.12582 10.7275 3.40423e-007 -5.22958e-007 -3.7748e-006 11.2009 16.7346 -2.78875 -9.60601e-006 -5.176e-006 -3 8.02889 -4.95145 0.69769 -69.3193 2.09919 0.164393 -106.764 10.741 -20.9472 -6.29388e-007 -7.90131e-008 4.63395e-006 -11.2097 2.92759 0.604186 4.42347e-006 -4.38536e-006 3 -8.02889 -4.95148 -0.697711 175.714 7.2857 0.0303124 -180 7.0156e-015 178.979 179.332 7.09222 179.786 4.22802e-006 -2.08559e-006 0.0185979 -18.0058 66.9926 18.7297 8.13482 25.2327 -3.48702 -175.189 3.92345 0.409875 4.54188e-006 -4.6773e-006 -1.05319 -1.032 -7.73745 0.199006 -1.11663e-006 2.1944e-006 -0.0611158 18.3067 67.4979 -19.1128 -8.13126 25.2329 3.4855 
54.7066 91.324 7.46149 0.182965 2.11572 -3.62305 0.206136 -1.95963 -0.0176346 0.411401 0.0834131 -0.054392 0.412205 1.72846 -0.0612954 -4.60551 21.4902 1.12433 3.07402 -9.39044 -0.0557979 70.0232 4.84482 1.08061 105.376 7.12273 10.7271 3.40423e-007 -5.22958e-007 -3.7748e-006 11.1813 16.7525 -2.78981 -9.60601e-006 -5.176e-006 -3 8.02889 -4.95145 0.69769 -69.2706 2.02586 0.194432 -106.851 10.7039 -20.9675 -6.29388e-007 -7.90131e-008 4.63395e-006 -11.1793 2.97271 0.61007 4.42347e-006 -4.38536e-006 3 -8.02889 -4.95148 -0.697711 175.778 7.26546 -0.0161663 -180 7.0156e-015 178.98 179.349 7.03444 179.786 4.22802e-006 -2.08559e-006 0.0144141 -17.9708 66.9443 18.6912 8.13482 25.2327 -3.48702 -175.138 4.02453 0.390557 4.54188e-006 -4.6773e-006 -1.05341 -1.00994 -7.9344 0.206155 -1.11663e-006 2.1944e-006 -0.0673181 18.3531 67.5586 -19.1622 -8.13126 25.2329 3.4855 
54.7027 91.3221 7.4578 0.13989 2.12307 -3.63528 0.215759 -1.94856 -0.017482 0.43064 0.105548 -0.0548996 0.43146 1.7506 -0.0621255 -4.64264 21.3394 1.12984 3.113 -9.30275 -0.0539682 69.9526 4.79893 1.06963 105.474 7.11968 10.7271 3.40423e-007 -5.22958e-007 -3.7748e-006 11.1616 16.7703 -2.79085 -9.60601e-006 -5.176e-006 -3 8.02889 -4.95145 0.69769 -69.2217 1.95277 0.224346 -106.937 10.6667 -20.9878 -6.29388e-007 -7.90131e-008 4.63395e-006 -11.1488 3.01792 0.615965 4.42347e-006 -4.38536e-006 3 -8.02889 -4.95148 -0.697711 175.841 7.24628 -0.0623921 -180 7.0156e-015 178.98 179.366 6.97784 179.786 4.22802e-006 -2.08559e-006 0.0102717 -17.9361 66.8963 18.6532 8.13482 25.2327 -3.48702 -175.087 4.12562 0.371452 4.54188e-006 -4.6773e-006 -1.05363 -0.987974 -8.13027 0.213273 -1.11663e-006 2.19439e-006 -0.073473 18.3993 67.6188 -19.2114 -8.13126 25.2329 3.4855 
54.6979 91.3287 7.46857 0.0975822 2.13129 -3.64741 0.225204 -1.93769 -0.0173289 0.449524 0.127271 -0.0554071 0.450361 1.77232 -0.0629497 -4.67848 21.1893 1.13503 3.15089 -9.2155 -0.0522008 69.8834 4.75359 1.05868 105.57 7.11677 10.7277 3.40423e-007 -5.22958e-007 -3.7748e-006 11.1418 16.7879 -2.79183 -9.60601e-006 -5.176e-006 -3 8.02889 -4.95145 0.69769 -69.1726 1.88029 0.25395 -107.024 10.6295 -21.0084 -6.29388e-007 -7.90131e-008 4.63395e-006 -11.1183 3.06332 0.621886 4.42347e-006 -4.38536e-006 3 -8.02889 -4.95148 -0.697711 175.904 7.22979 -0.107993 -180 7.0156e-015 178.98 179.382 6.92431 179.786 4.22802e-006 -2.08559e-006 0.00623292 -17.9023 66.8493 18.6161 8.13482 25.2327 -3.48702 -175.037 4.22675 0.352884 4.54188e-006 -4.6773e-006 -1.05382 -0.96631 -8.32344 0.220304 -1.11663e-006 2.1944e-006 -0.0795091 18.4448 67.6777 -19.2599 -8.13126 25.2329 3.4855 
54.7034 91.3436 7.46007 0.0564978 2.14089 -3.65938 0.234366 -1.92716 -0.017175 0.467842 0.148336 -0.0559145 0.468695 1.79338 -0.0637642 -4.71226 21.0405 1.1397 3.18705 -9.12895 -0.0505325 69.8166 4.70915 1.04778 105.663 7.11408 10.7297 3.40423e-007 -5.22958e-007 -3.7748e-006 11.1215 16.8052 -2.79272 -9.60601e-006 -5.176e-006 -3 8.02889 -4.95145 0.69769 -69.1233 1.80879 0.283061 -107.11 10.5921 -21.0292 -6.29388e-007 -7.90131e-008 4.63395e-006 -11.0876 3.10903 0.627848 4.42347e-006 -4.38536e-006 3 -8.02889 -4.95148 -0.697711 175.965 7.2176 -0.152596 -180 7.0156e-015 178.98 179.399 6.87564 179.786 4.22802e-006 -2.08559e-006 0.00235982 -17.8697 66.8036 18.5803 8.13482 25.2327 -3.48702 -174.989 4.32794 0.335176 4.54188e-006 -4.6773e-006 -1.05396 -0.945159 -8.51231 0.22719 -1.11663e-006 2.1944e-006 -0.0853551 18.4889 67.7345 -19.307 -8.13126 25.2329 3.4855 
54.6971 91.3419 7.45324 0.0170959 2.1524 -3.67113 0.243138 -1.91707 -0.0170201 0.485381 0.168494 -0.0564218 0.48625 1.81354 -0.0645656 -4.74323 20.8934 1.14367 3.22082 -9.04337 -0.049 69.753 4.66594 1.03695 105.752 7.11168 10.7333 3.40423e-007 -5.22958e-007 -3.7748e-006 11.1008 16.8221 -2.79348 -9.60601e-006 -5.176e-006 -3 8.02889 -4.95145 0.69769 -69.0736 1.73862 0.311495 -107.196 10.5546 -21.0505 -6.29388e-007 -7.90131e-008 4.63395e-006 -11.0567 3.15517 0.633866 4.42347e-006 -4.38536e-006 3 -8.02889 -4.95148 -0.697711 176.023 7.21131 -0.195831 -180 7.0156e-015 178.98 179.415 6.83366 179.786 4.22802e-006 -2.08559e-006 -0.00128543 -17.8386 66.76 18.5462 8.13482 25.2327 -3.48702 -174.944 4.42922 0.318654 4.54188e-006 -4.6773e-006 -1.05405 -0.924736 -8.69524 0.23387 -1.11663e-006 2.19439e-006 -0.0909399 18.5311 67.7886 -19.352 -8.13126 25.2329 3.4855 
54.6874 91.3166 7.44877 -0.0201647 2.16634 -3.68261 0.251414 -1.90757 -0.0168638 0.501928 0.187501 -0.0569288 0.502812 1.83254 -0.0653501 -4.77065 20.7485 1.14674 3.25157 -8.95901 -0.0476398 69.6937 4.62429 1.0262 105.836 7.10965 10.739 3.40423e-007 -5.22958e-007 -3.7748e-006 11.0794 16.8383 -2.79408 -9.60601e-006 -5.176e-006 -3 8.02889 -4.95145 0.69769 -69.0235 1.67016 0.339068 -107.281 10.5168 -21.0723 -6.29388e-007 -7.90131e-008 4.63395e-006 -11.0256 3.20185 0.639956 4.42347e-006 -4.38536e-006 3 -8.02889 -4.95148 -0.697711 176.079 7.21254 -0.237327 -180 7.0156e-015 178.98 179.431 6.80022 179.785 4.22802e-006 -2.08559e-006 -0.0046407 -17.8095 66.7188 18.5143 8.13482 25.2327 -3.48702 -174.902 4.53062 0.303641 4.54188e-006 -4.6773e-006 -1.05406 -0.905257 -8.87063 0.240288 -1.11663e-006 2.19439e-006 -0.0961921 18.5706 67.839 -19.3942 -8.13126 25.2329 3.4855 
